g Auditorium
v 1.000000 0.000000 0.000000
v 1.000000 0.000000 1.000000
v 0.000000 0.000000 1.000000
v 0.000000 0.000000 0.000000
v 1.000000 1.000000 0.000000
v 1.000000 1.000000 1.000000
v 0.000000 1.000000 1.000000
v 0.000000 1.000000 0.000000
vn 0.0000 1.0000 0.0000
vn 0.0000 -1.0000 0.0000
vn -1.0000 0.0000 0.0000
vn 0.0000 0.0000 -1.0000
vn 1.0000 0.0000 0.0000
vn 0.0000 0.0000 1.0000
vt 0.0000 0.0000
vt 1.0000 0.0000
vt 0.0000 1.0000
vt 1.0000 1.0000
f 4/3/1 2/2/1 1/4/1
f 6/2/2 8/3/2 5/4/2
f 2/2/3 5/3/3 1/1/3
f 3/2/4 6/3/4 2/1/4
f 3/1/5 8/4/5 7/3/5
f 8/3/6 1/2/6 5/4/6
f 4/3/1 3/1/1 2/2/1
f 6/2/2 7/1/2 8/3/2
f 2/2/3 6/4/3 5/3/3
f 3/2/4 7/4/4 6/3/4
f 3/1/5 4/2/5 8/4/5
f 8/3/6 4/1/6 1/2/6
