g frontscreen
v 1.000000 0.000000 1.000000
v 0.000000 0.000000 1.000000
v 0.000000 0.000000 0.000000
v 1.000000 0.000000 -0.000000
v 0.000000 1.000000 0.000000
v 1.000000 1.000000 -0.000000
vn 0.0000 -1.0000 0.0000
vn 1.0000 0.0000 0.0000
vn 0.0000 0.7071 0.7071
vn -1.0000 0.0000 0.0000
vn -0.0000 0.0000 -1.0000
vt 1.0 1.0
vt 1.0 0.0
vt 0.0 1.0
vt 0.0 0.0
s off
f 2//1 4//1 1//1
f 4//2 6//2 1//2
f 1/1/3 5/4/3 2/3/3
f 3//4 2//4 5//4
f 5//5 4//5 3//5
f 2//1 3//1 4//1
f 1/1/3 6/2/3 5/4/3
f 5//5 6//5 4//5
